<?xml version="1.0" standalone="no"?>
<!DOCTYPE svg PUBLIC "-//W3C//DTD SVG 20010904//EN"
 "http://www.w3.org/TR/2001/REC-SVG-20010904/DTD/svg10.dtd">
<svg version="1.0" xmlns="http://www.w3.org/2000/svg"
 width="80.000000pt" height="80.000000pt" viewBox="0 0 80.000000 80.000000"
 preserveAspectRatio="xMidYMid meet">
<metadata>
Created by potrace 1.16, written by Peter Selinger 2001-2019
</metadata>
<g transform="translate(0.000000,80.000000) scale(0.100000,-0.100000)"
fill="#000000" stroke="none">
<path d="M120 595 c0 -96 4 -132 17 -160 16 -33 16 -37 0 -70 -13 -28 -17 -64
-17 -160 0 -69 2 -125 5 -125 10 0 635 315 635 320 0 5 -625 320 -635 320 -3
0 -5 -56 -5 -125z m295 -57 c146 -73 265 -135 265 -138 0 -5 -525 -270 -535
-270 -3 0 -5 37 -5 83 l0 83 235 45 c182 34 235 47 235 59 0 12 -53 25 -235
59 l-235 45 0 83 c0 46 2 83 5 83 3 0 124 -60 270 -132z m-104 -98 c101 -18
126 -26 125 -39 -1 -12 -31 -22 -136 -42 -74 -15 -136 -26 -138 -24 -7 7 23
55 35 55 7 0 13 5 13 10 0 6 -6 10 -13 10 -8 0 -19 11 -25 25 -15 33 -15 38 1
32 6 -2 69 -15 138 -27z"/>
</g>
</svg>
